<svg width="33" height="32" viewBox="0 0 33 32" fill="none" xmlns="http://www.w3.org/2000/svg">
<rect x="1.00439" y="1.08398" width="30.4239" height="30.0919" rx="15.046" stroke="#484E53" stroke-width="1.5"/>
<path fill-rule="evenodd" clip-rule="evenodd" d="M16.2246 6.33398C10.7113 6.33398 6.25439 10.8238 6.25439 16.3783C6.25439 20.8183 9.11011 24.5766 13.0717 25.9068C13.567 26.0068 13.7485 25.6907 13.7485 25.4248C13.7485 25.1919 13.7321 24.3938 13.7321 23.5621C10.9587 24.1609 10.3811 22.3648 10.3811 22.3648C9.93541 21.2007 9.27501 20.9015 9.27501 20.9015C8.36725 20.2862 9.34113 20.2862 9.34113 20.2862C10.3481 20.3528 10.8764 21.3173 10.8764 21.3173C11.7677 22.847 13.2038 22.4148 13.7815 22.1487C13.864 21.5001 14.1283 21.0511 14.4089 20.8017C12.1968 20.5689 9.8695 19.7042 9.8695 15.846C9.8695 14.7485 10.2654 13.8505 10.8928 13.1521C10.7938 12.9028 10.447 11.8715 10.9919 10.4913C10.9919 10.4913 11.8338 10.2252 13.7319 11.5224C14.5446 11.3025 15.3827 11.1906 16.2246 11.1897C17.0664 11.1897 17.9246 11.3062 18.717 11.5224C20.6154 10.2252 21.4573 10.4913 21.4573 10.4913C22.0021 11.8715 21.6552 12.9028 21.5562 13.1521C22.2001 13.8505 22.5797 14.7485 22.5797 15.846C22.5797 19.7042 20.2524 20.5521 18.0238 20.8017C18.387 21.1177 18.7005 21.7162 18.7005 22.6642C18.7005 24.0111 18.6842 25.0921 18.6842 25.4246C18.6842 25.6907 18.8658 26.0068 19.3609 25.907C23.3226 24.5764 26.1783 20.8183 26.1783 16.3783C26.1946 10.8238 21.7213 6.33398 16.2246 6.33398Z" fill="#A9A9A9"/>
</svg>
